<svg width="24" height="23" viewBox="0 0 24 23" fill="none" xmlns="http://www.w3.org/2000/svg">
<path d="M9.07007 22.0247H15.1845C20.2799 22.0247 22.3181 19.9866 22.3181 14.8912V8.77673C22.3181 3.68134 20.2799 1.64319 15.1845 1.64319H9.07007C3.97468 1.64319 1.93652 3.68134 1.93652 8.77673V14.8912C1.93652 19.9866 3.97468 22.0247 9.07007 22.0247Z" stroke="#25897B" stroke-width="1.94899" stroke-linecap="round" stroke-linejoin="round"/>
<path d="M12.1276 15.4008C14.0974 15.4008 15.6943 13.8039 15.6943 11.834C15.6943 9.86411 14.0974 8.26721 12.1276 8.26721C10.1577 8.26721 8.56079 9.86411 8.56079 11.834C8.56079 13.8039 10.1577 15.4008 12.1276 15.4008Z" stroke="#25897B" stroke-width="1.94899" stroke-linecap="round" stroke-linejoin="round"/>
<path d="M17.8699 6.73853H17.8818" stroke="#25897B" stroke-width="2.59865" stroke-linecap="round" stroke-linejoin="round"/>
</svg>
