<svg width="25" height="19" viewBox="0 0 25 19" fill="none" xmlns="http://www.w3.org/2000/svg">
<path d="M22.3283 18.784H2.56061C1.29852 18.784 0.279724 17.771 0.279724 16.516V2.90801C0.279724 1.65305 1.29852 0.640015 2.56061 0.640015H22.3283C23.5904 0.640015 24.6092 1.65305 24.6092 2.90801V16.516C24.6092 17.771 23.5904 18.784 22.3283 18.784ZM2.56061 2.15201C2.13484 2.15201 1.80031 2.48465 1.80031 2.90801V16.516C1.80031 16.9394 2.13484 17.272 2.56061 17.272H22.3283C22.7541 17.272 23.0886 16.9394 23.0886 16.516V2.90801C23.0886 2.48465 22.7541 2.15201 22.3283 2.15201H2.56061Z" fill="#25897B"/>
<path d="M12.4443 12.7896C11.3828 12.7896 10.4124 12.3662 9.68451 11.595L1.7236 3.15707C1.43549 2.85464 1.45065 2.37075 1.75392 2.08344C2.0572 1.79612 2.54243 1.81124 2.83054 2.11368L10.7915 10.5516C11.6558 11.474 13.2328 11.474 14.0971 10.5516L22.0581 2.1288C22.3462 1.82637 22.8314 1.81124 23.1347 2.09856C23.4379 2.38587 23.4531 2.86976 23.165 3.1722L15.2041 11.6101C14.4762 12.3813 13.5058 12.8047 12.4443 12.8047V12.7896Z" fill="#25897B"/>
</svg>
