<svg width="22" height="22" viewBox="0 0 22 22" fill="none" xmlns="http://www.w3.org/2000/svg">
<path d="M1.86505 7.97601H19.6058M1.86505 14.312H19.6058M1.23145 11.144C1.23145 12.3921 1.47727 13.628 1.95489 14.781C2.43251 15.9341 3.13257 16.9818 4.0151 17.8644C4.89763 18.7469 5.94534 19.4469 7.09842 19.9246C8.2515 20.4022 9.48736 20.648 10.7354 20.648C11.9835 20.648 13.2194 20.4022 14.3725 19.9246C15.5255 19.4469 16.5733 18.7469 17.4558 17.8644C18.3383 16.9818 19.0384 15.9341 19.516 14.781C19.9936 13.628 20.2394 12.3921 20.2394 11.144C20.2394 8.6234 19.2381 6.20602 17.4558 4.42367C15.6734 2.64133 13.2561 1.64001 10.7354 1.64001C8.21483 1.64001 5.79745 2.64133 4.0151 4.42367C2.23276 6.20602 1.23145 8.6234 1.23145 11.144Z" stroke="#25897B" stroke-width="2.112" stroke-linecap="round" stroke-linejoin="round"/>
<path d="M10.2074 1.64001C8.42844 4.4908 7.48529 7.78368 7.48529 11.144C7.48529 14.5043 8.42844 17.7972 10.2074 20.648M11.2634 1.64001C13.0424 4.4908 13.9856 7.78368 13.9856 11.144C13.9856 14.5043 13.0424 17.7972 11.2634 20.648" stroke="#25897B" stroke-width="2.112" stroke-linecap="round" stroke-linejoin="round"/>
</svg>
