<svg width="20" height="21" viewBox="0 0 20 21" fill="none" xmlns="http://www.w3.org/2000/svg">
<path d="M17.0962 3.80341C16.1807 2.88327 15.0902 2.15371 13.8884 1.65729C12.6865 1.16088 11.3973 0.907536 10.0961 0.912046C4.64374 0.912046 0.200005 5.33355 0.200005 10.7586C0.200005 12.4974 0.659357 14.1865 1.51815 15.6769L0.120117 20.784L5.36273 19.4128C6.81069 20.1978 8.43839 20.6151 10.0961 20.6151C15.5484 20.6151 19.9921 16.1936 19.9921 10.7685C19.9921 8.1355 18.9636 5.66144 17.0962 3.80341ZM10.0961 18.9458C8.61814 18.9458 7.17018 18.5484 5.90197 17.8032L5.60239 17.6243L2.48678 18.4391L3.31561 15.4186L3.1159 15.1105C2.2948 13.8059 1.85881 12.2979 1.85767 10.7586C1.85767 6.24766 5.55246 2.57135 10.0861 2.57135C12.283 2.57135 14.3501 3.42585 15.8979 4.97586C16.6643 5.73493 17.2716 6.63781 17.6848 7.63216C18.0979 8.62652 18.3085 9.69257 18.3045 10.7685C18.3245 15.2795 14.6297 18.9458 10.0961 18.9458ZM14.6097 12.8253C14.36 12.706 13.1418 12.1099 12.9221 12.0205C12.6924 11.941 12.5326 11.9012 12.3629 12.1397C12.1931 12.3881 11.7238 12.9445 11.584 13.1035C11.4442 13.2724 11.2944 13.2923 11.0447 13.1631C10.7951 13.0439 9.9962 12.7756 9.05752 11.941C8.31856 11.2852 7.82925 10.4804 7.67946 10.232C7.53966 9.98359 7.65949 9.85442 7.78931 9.72525C7.89915 9.61596 8.03896 9.43711 8.15879 9.298C8.27862 9.1589 8.32855 9.04961 8.40844 8.89063C8.48833 8.72172 8.44838 8.58262 8.38846 8.46338C8.32855 8.34415 7.82925 7.13196 7.62953 6.63517C7.42982 6.15824 7.22011 6.21785 7.07032 6.20792H6.591C6.42124 6.20792 6.1616 6.26753 5.93193 6.51593C5.71224 6.76433 5.07314 7.36049 5.07314 8.57268C5.07314 9.78487 5.96189 10.9573 6.08172 11.1163C6.20155 11.2852 7.82925 13.7692 10.3058 14.8323C10.8949 15.0907 11.3543 15.2397 11.7138 15.349C12.3029 15.5378 12.8422 15.508 13.2716 15.4484C13.7509 15.3788 14.7395 14.8522 14.9392 14.2759C15.1489 13.6996 15.1489 13.2128 15.079 13.1035C15.0091 12.9942 14.8593 12.9445 14.6097 12.8253Z" fill="#25897B"/>
</svg>
